<?xml version="1.0" standalone="no"?>
<!DOCTYPE svg PUBLIC "-//W3C//DTD SVG 20010904//EN"
 "http://www.w3.org/TR/2001/REC-SVG-20010904/DTD/svg10.dtd">
<svg version="1.0" xmlns="http://www.w3.org/2000/svg"
 width="100.000000pt" height="96.000000pt" viewBox="0 0 100.000000 96.000000"
 preserveAspectRatio="xMidYMid meet">
<metadata>
Created by potrace 1.10, written by Peter Selinger 2001-2011
</metadata>
<g transform="translate(0.000000,96.000000) scale(0.100000,-0.100000)"
fill="#000000" stroke="none">
<path d="M179 905 l-56 -54 54 -53 53 -52 -55 -56 -55 -55 53 -29 c105 -60
217 -202 217 -278 l0 -28 91 0 91 0 -7 43 c-18 114 -110 244 -243 342 l-81 60
52 53 52 52 -55 55 -55 54 -56 -54z m91 -20 l34 -35 -29 -30 c-36 -37 -45 -37
-86 0 l-32 31 34 34 c19 18 36 34 40 34 3 1 20 -15 39 -34z m34 -219 c122 -87
226 -232 226 -315 0 -28 -1 -29 -51 -28 -49 0 -52 2 -65 36 -24 60 -55 115
-83 146 -39 44 -136 125 -150 125 -6 0 -11 3 -11 7 0 8 61 73 68 73 3 0 32
-20 66 -44z"/>
<path d="M62 493 c-51 -66 -69 -123 -52 -168 9 -24 14 -25 85 -25 41 0 75 2
75 5 0 2 -5 15 -11 29 -16 34 11 105 59 158 l34 38 -80 0 -80 0 -30 -37z m118
3 c0 -2 -14 -30 -31 -62 -17 -34 -29 -68 -26 -81 4 -24 -6 -29 -54 -31 -15 -1
-34 7 -45 19 -18 20 -18 21 -1 34 9 6 17 17 17 24 0 17 47 88 62 94 16 6 78 9
78 3z"/>
<path d="M286 426 c-42 -100 -122 -176 -185 -176 l-35 0 49 -51 c48 -48 52
-50 93 -46 34 4 53 14 84 43 82 81 90 116 45 212 -26 57 -34 59 -51 18z m44
-75 c11 -58 6 -73 -37 -122 -50 -56 -110 -69 -140 -30 -17 22 -16 25 15 44 41
23 89 75 119 125 14 24 27 41 29 39 2 -2 8 -27 14 -56z"/>
<path d="M397 283 c-3 -5 -8 -36 -12 -70 -7 -59 -6 -63 13 -63 11 0 23 8 25
18 4 16 5 16 6 0 1 -11 9 -18 21 -18 16 0 19 5 16 23 -3 12 -8 43 -11 70 -5
41 -9 47 -30 47 -13 0 -26 -3 -28 -7z m33 -63 c0 -11 -4 -20 -9 -20 -5 0 -7 9
-4 20 3 11 7 20 9 20 2 0 4 -9 4 -20z"/>
<path d="M480 220 l0 -70 30 0 c20 0 30 5 30 15 0 8 -6 15 -12 15 -9 0 -12 16
-10 55 4 50 2 55 -17 55 -19 0 -21 -6 -21 -70z"/>
<path d="M560 276 c0 -8 5 -16 11 -18 7 -2 7 -12 0 -31 -6 -16 -11 -39 -11
-53 0 -20 5 -24 30 -24 30 0 43 24 18 32 -9 3 -9 12 0 38 20 55 16 70 -18 70
-19 0 -30 -5 -30 -14z"/>
<path d="M646 278 c-3 -7 -7 -39 -10 -70 -6 -53 -4 -58 13 -58 11 0 22 8 24
18 4 16 5 16 6 0 1 -11 9 -18 20 -18 17 0 19 5 15 38 -14 102 -14 102 -40 102
-13 0 -26 -6 -28 -12z m34 -53 c0 -14 -4 -25 -9 -25 -4 0 -6 11 -3 25 2 14 6
25 8 25 2 0 4 -11 4 -25z"/>
<path d="M730 220 c0 -56 3 -70 15 -70 10 0 15 10 15 30 0 17 5 30 10 30 6 0
10 -13 10 -30 0 -20 5 -30 15 -30 12 0 15 14 15 70 0 62 -2 70 -19 70 -14 0
-17 -6 -13 -25 2 -15 0 -25 -7 -25 -6 0 -11 11 -11 25 0 16 -6 25 -15 25 -12
0 -15 -14 -15 -70z"/>
<path d="M820 221 c0 -56 3 -71 15 -71 10 0 15 10 15 30 0 17 5 30 10 30 6 0
10 -13 10 -30 0 -20 5 -30 15 -30 11 0 14 14 12 68 l-2 67 -37 3 -38 3 0 -70z
m50 24 c0 -8 -4 -15 -10 -15 -5 0 -10 7 -10 15 0 8 5 15 10 15 6 0 10 -7 10
-15z"/>
<path d="M920 251 c0 -21 -3 -53 -6 -70 -6 -27 -4 -31 14 -31 11 0 23 8 25 18
4 16 5 16 6 0 0 -10 8 -18 16 -18 16 0 19 37 9 103 -6 33 -10 37 -35 37 -27 0
-29 -3 -29 -39z m36 -49 c-11 -10 -14 3 -8 33 l7 30 3 -28 c2 -16 1 -31 -2
-35z"/>
<path d="M170 75 l0 -65 40 0 40 0 0 65 c0 51 -3 65 -15 65 -12 0 -15 -13 -15
-60 0 -33 -4 -60 -10 -60 -6 0 -10 27 -10 60 0 47 -3 60 -15 60 -12 0 -15 -14
-15 -65z"/>
<path d="M270 75 c0 -51 3 -65 15 -65 11 0 14 7 9 25 -4 15 -2 25 5 25 6 0 11
-11 11 -25 0 -18 5 -25 20 -25 18 0 20 7 20 65 0 51 -3 65 -15 65 -9 0 -15
-10 -16 -27 l-1 -28 -11 28 c-20 50 -37 33 -37 -38z"/>
<path d="M365 75 c0 -55 3 -65 18 -65 14 0 17 10 17 65 0 55 -3 65 -17 65 -15
0 -18 -10 -18 -65z"/>
<path d="M415 113 c2 -16 7 -45 10 -65 5 -34 9 -38 34 -38 26 0 29 4 35 46 9
69 8 84 -9 84 -11 0 -15 -12 -15 -50 0 -27 -4 -50 -10 -50 -5 0 -10 23 -10 50
0 43 -3 50 -20 50 -16 0 -19 -5 -15 -27z"/>
<path d="M517 133 c-4 -3 -7 -33 -7 -65 l0 -58 35 0 c19 0 35 5 35 10 0 6 -7
10 -15 10 -8 0 -15 7 -15 15 0 8 5 15 10 15 14 0 12 27 -2 34 -10 5 -10 7 0
12 21 10 13 34 -11 34 -13 0 -27 -3 -30 -7z"/>
<path d="M590 76 c0 -52 3 -66 15 -66 10 0 15 10 15 30 0 17 5 30 10 30 6 0
10 -13 10 -30 0 -20 5 -30 15 -30 12 0 14 13 12 62 l-2 63 -37 3 -38 3 0 -65z
m50 29 c0 -8 -4 -15 -10 -15 -5 0 -10 7 -10 15 0 8 5 15 10 15 6 0 10 -7 10
-15z"/>
<path d="M692 128 c-19 -19 -14 -44 13 -62 14 -9 25 -24 25 -34 -1 -16 -1 -16
-14 1 -17 22 -38 22 -34 -1 2 -12 14 -18 41 -20 35 -3 37 -2 37 26 0 21 -8 35
-25 46 -15 10 -23 22 -18 28 5 9 8 9 11 0 6 -19 34 -14 30 6 -4 21 -48 28 -66
10z"/>
<path d="M780 75 c0 -58 2 -65 20 -65 22 0 24 10 14 84 -4 29 -12 46 -20 46
-10 0 -14 -17 -14 -65z"/>
<path d="M830 125 c0 -8 5 -15 11 -15 7 0 10 -18 7 -50 -3 -46 -1 -50 18 -50
20 0 21 4 18 50 -2 28 1 50 6 50 6 0 10 7 10 15 0 10 -11 15 -35 15 -24 0 -35
-5 -35 -15z"/>
<path d="M923 98 c5 -24 10 -53 10 -65 -1 -16 5 -23 17 -23 12 0 19 11 23 37
4 21 9 50 13 66 5 21 3 27 -10 27 -10 0 -16 -9 -17 -22 l0 -23 -9 23 c-5 12
-16 22 -24 22 -11 0 -12 -7 -3 -42z"/>
</g>
</svg>
